<svg width="612" height="275" viewBox="0 0 612 275" fill="none" xmlns="http://www.w3.org/2000/svg">
<path d="M122.84 223.18C140.43 223.18 154.69 208.92 154.69 191.33C154.69 173.74 140.43 159.48 122.84 159.48C105.249 159.48 90.9897 173.74 90.9897 191.33C90.9897 208.92 105.249 223.18 122.84 223.18Z" fill="#58266B"/>
<path d="M155.34 247.68C147.82 250.85 139.31 252.64 130.3 252.64C117.93 252.64 106.51 249.27 97.2998 243.58C89.9698 239.67 81.9098 232.76 74.7398 223.71C59.9798 205.08 54.6098 184.38 62.7498 177.49C65.2198 175.4 68.6598 174.82 72.6598 175.55L81.3298 185.51L87.4398 192.52C92.9098 201.56 102.11 208.69 113.32 212.62C118.35 214.39 123.79 215.52 129.49 215.88C129.27 217.52 129.19 219.21 129.26 220.93C129.86 235.64 141.35 247.21 155.35 247.67L155.34 247.68Z" fill="#6B2B7F"/>
<path d="M154.49 147.85C146.49 155.06 134.15 154.42 126.94 146.41L81.4799 95.9599C74.2699 87.9499 74.9199 75.6199 82.9199 68.4099C86.6499 65.0499 91.3199 63.3999 95.9699 63.3999C101.3 63.3999 106.62 65.5699 110.47 69.8499L155.93 120.3C163.14 128.3 162.49 140.64 154.49 147.85Z" fill="#D93593"/>
<path d="M137.01 100.55C151.53 79.6399 169.56 69.9399 180.22 74.8199C186.91 77.8899 188.11 83.3999 188.11 83.3999C188.7 85.7199 188.28 87.6899 187.67 90.6199C187.04 93.6299 186.08 96.1899 183.26 101.96C179.5 109.66 179.1 109.38 177.27 113.81C175.41 118.31 174.46 121.88 173.93 124.23C173.05 128.17 172.58 130.26 172.79 133.28C173.07 137.34 174.42 140.73 175.14 142.52C175.88 144.37 176.62 145.78 176.85 146.2C178.6 149.46 180.2 151.24 180.1 151.33C179.92 151.48 175.47 146.12 169.4 139.85C164.97 135.27 165.04 135.75 162.42 132.87C157.57 127.54 156.03 124.47 152.13 119.28C149.67 116.01 145.96 111.47 140.74 106.42" fill="#C23C96"/>
<path d="M152.01 115.74C160.04 124.28 160.31 124.04 172.4 136.39C173.3 137.31 182.14 146.37 193.03 158.63C200.27 166.78 203.13 170.4 205.29 175.95C207.94 182.77 208.03 188.65 207.92 191.51C207.57 200.09 204.39 206.29 202.83 209.25C200.4 213.86 197.74 217.03 195.32 219.9C191.27 224.71 187.53 227.98 184.93 230.24C182.1 232.69 179.19 235.21 174.73 238.08C170.04 241.09 166.19 242.83 162.11 244.68C157.38 246.82 155.02 247.89 153.07 248.1C146.2 248.82 140.6 245.05 138.47 243.62C133.49 240.27 131.29 236.22 130.41 234.55C128.52 230.96 128.07 227.84 127.72 225.44C127.41 223.26 126.97 220.26 127.62 216.61C128.68 210.67 131.95 206.6 135.19 202.58C136.77 200.61 139 197.88 142.72 194.98C149.1 190 151.59 191 154.21 187.53C158.28 182.13 155.86 174.94 155.36 173.43C154.14 169.8 152.05 167.45 148.77 163.75C145.95 160.57 144.26 159.4 140.08 155.61C134.08 150.17 131.07 147.44 129.65 145.34C122.88 135.31 125.84 123.49 126.38 121.33C127.12 118.37 128.15 116.09 128.91 114.42C132.34 106.83 137.62 100.21 137.62 100.2C137.62 100.2 146.34 109.74 152 115.75L152.01 115.74Z" fill="#612976"/>
<path d="M116.93 204.91C114.79 206.78 112.25 207.96 109.61 208.48C104.36 209.51 98.71 207.91 94.87 203.79L86.22 194.5L82.31 190.3L79.9 187.72L70.93 178.09L70.52 177.65C64.75 171.45 65.26 161.91 71.68 156.33C74.66 153.74 78.4 152.46 82.13 152.46C84.29 152.46 86.45 152.89 88.45 153.74C90.22 154.5 91.87 155.59 93.3 157C93.45 157.14 93.59 157.3 93.74 157.45L94.33 158.09L95.43 159.27C95.43 159.27 95.47 159.31 95.49 159.33L104.4 168.9L118.08 183.59C123.85 189.79 123.34 199.33 116.92 204.91H116.93Z" fill="#82459A"/>
<path d="M152.78 190.65C145.84 197.23 134.59 197.23 127.65 190.65L93.6198 158.37C93.6198 158.37 93.5698 158.33 93.5598 158.3C93.1498 157.91 92.7598 157.51 92.3998 157.09C92.0598 156.69 91.7398 156.29 91.4498 155.87C86.7798 149.31 87.4998 140.33 93.6198 134.52C97.0898 131.23 101.64 129.58 106.19 129.58C110.74 129.58 115.29 131.23 118.76 134.52L127.02 142.36L152.79 166.81C159.73 173.39 159.73 184.07 152.79 190.65H152.78Z" fill="#99459A"/>
<path d="M167.928 57.4024C177.358 46.5809 178.211 31.8903 169.834 24.5899C161.457 17.2896 147.021 20.144 137.591 30.9655C128.16 41.787 127.307 56.4777 135.684 63.778C144.062 71.0784 158.498 68.2239 167.928 57.4024Z" fill="#622A78"/>
<path d="M162.349 53.6337C171.482 43.1536 173.242 29.7398 166.28 23.6732C159.319 17.6065 146.271 21.1842 137.139 31.6643C128.006 42.1444 126.246 55.5582 133.208 61.6249C140.17 67.6915 153.217 64.1138 162.349 53.6337Z" fill="#F58822"/>
<path d="M215.84 40.03L210.94 41.31C205.94 42.62 202.15 46.7 201.21 51.79L200.35 56.44L199.49 51.79C198.55 46.71 194.76 42.63 189.76 41.32L184.86 40.04L189.76 38.78C194.75 37.5 198.56 33.46 199.54 28.4L200.34 24.27L201.13 28.39C202.11 33.45 205.92 37.5 210.91 38.78L215.82 40.03H215.84Z" fill="#5E2974"/>
<path d="M294.55 128.45V180.67C294.55 199.61 279.46 215.06 260.45 215.2C254.16 215.06 249.13 210.05 249.13 203.78C249.13 197.37 254.3 192.22 260.73 192.22H260.17C266.46 192.22 271.49 187.21 271.49 180.66V128.44C271.49 122.03 276.8 116.88 283.09 116.88C289.52 116.88 294.55 122.03 294.55 128.44V128.45ZM271.49 100.04C271.49 93.63 276.8 88.48 283.09 88.48C289.52 88.48 294.55 93.63 294.55 100.04C294.55 106.31 289.52 111.46 283.09 111.46C276.8 111.46 271.49 106.31 271.49 100.04ZM378.41 151.98V175.1C378.41 181.51 373.1 186.66 366.81 186.66C360.38 186.66 355.21 181.51 355.21 175.1V151.84H355.07C355.07 145.57 349.9 140.42 343.61 140.42C337.18 140.42 331.87 145.57 331.87 151.84C331.87 154.62 332.71 156.85 334.25 158.94C334.95 159.92 338.3 162.56 339.28 163.54C342.49 166.74 343.19 172.03 341.1 176.21C338.3 182.2 331.32 184.43 325.45 181.78L323.07 180.25C314.27 173.98 308.53 163.54 308.53 151.98V151.84C308.53 132.62 324.18 117.03 343.61 117.03C343.61 117.03 352.97 117.17 358.56 120.51C360.66 118.28 363.45 117.03 366.81 117.03C373.1 117.03 378.41 122.18 378.41 128.59V151.85H378.55C378.55 151.85 378.41 151.85 378.41 151.99V151.98ZM509.22 151.98V175.23C509.22 181.5 503.91 186.65 497.48 186.65C491.05 186.65 485.88 181.5 485.88 175.23V151.98C485.88 145.57 480.57 140.28 474.14 140.28C467.71 140.28 462.4 145.57 462.4 151.98V175.23C462.4 181.5 457.23 186.65 450.8 186.65C444.37 186.65 439.06 181.5 439.06 175.23V151.98C439.06 145.57 434.03 140.28 427.6 140.28C421.17 140.28 415.86 145.57 415.86 151.98V175.23C415.86 181.5 410.69 186.65 404.26 186.65C397.83 186.65 392.52 181.5 392.52 175.23V151.98C392.52 132.62 408.31 117.03 427.6 117.03C436.54 117.03 444.65 120.37 450.8 125.94C456.95 120.37 465.2 117.03 474.14 117.03C493.43 117.03 509.22 132.77 509.22 151.98ZM523.19 100.04C523.19 93.63 528.22 88.48 534.65 88.48C541.08 88.48 546.11 93.63 546.11 100.04C546.11 106.31 541.08 111.46 534.65 111.46C528.22 111.46 523.19 106.31 523.19 100.04ZM546.11 128.59V175.24C546.11 181.51 541.08 186.66 534.65 186.66C528.22 186.66 523.19 181.51 523.19 175.24V128.59C523.19 122.32 528.22 117.17 534.65 117.17C541.08 117.17 546.11 122.32 546.11 128.59Z" fill="url(#paint0_linear_65_7633)"/>
<defs>
<linearGradient id="paint0_linear_65_7633" x1="249.13" y1="151.84" x2="546.11" y2="151.84" gradientUnits="userSpaceOnUse">
<stop stop-color="#D9347F"/>
<stop offset="1" stop-color="#4D3C97"/>
</linearGradient>
</defs>
</svg>
