<svg xmlns="http://www.w3.org/2000/svg" xmlns:xlink="http://www.w3.org/1999/xlink" xmlns:inkscape="http://www.inkscape.org/namespaces/inkscape" version="1.1" width="175.092" height="76.2411" viewBox="0 0 175.092 76.2411">
<defs>
<clipPath id="clip_1">
<path transform="matrix(1,0,0,-1,0,76.2411)" d="M0 76.241H175.092V0H0Z"/>
</clipPath>
</defs>
<g inkscape:groupmode="layer" inkscape:label="Layer 1">
<g clip-path="url(#clip_1)">
<path transform="matrix(1,0,0,-1,16.4612,11.7743)" d="M0 0C0 3.373 2.796 6.085 6.107 6.085 9.492 6.085 12.142 3.373 12.142 0 12.142-3.299 9.492-6.012 6.107-6.012 2.796-6.012 0-3.299 0 0M12.142-14.957V-42.451C12.142-52.422 4.194-60.561-5.813-60.634-9.125-60.561-11.774-57.921-11.774-54.622-11.774-51.25-9.051-48.537-5.667-48.537H-5.961C-2.649-48.537 0-45.897 0-42.451V-14.957C0-11.584 2.796-8.872 6.107-8.872 9.492-8.872 12.142-11.584 12.142-14.957" fill="#2d2d2d"/>
<path transform="matrix(1,0,0,-1,72.7537,39.121896)" d="M0 0V-12.171C0-15.543-2.796-18.256-6.108-18.256-9.493-18.256-12.215-15.543-12.215-12.171V.073H-12.289C-12.289 3.373-15.012 6.085-18.323 6.085-21.708 6.085-24.505 3.373-24.505 .073-24.505-1.393-24.063-2.566-23.253-3.666-22.886-4.179-21.119-5.572-20.604-6.085-18.912-7.771-18.544-10.558-19.647-12.757-21.119-15.91-24.799-17.083-27.89-15.69L-29.141-14.884C-33.776-11.584-36.793-6.085-36.793 0V.073C-36.793 10.191-28.552 18.403-18.323 18.403-18.323 18.403-13.393 18.329-10.449 16.57-9.345 17.743-7.874 18.403-6.108 18.403-2.796 18.403 0 15.69 0 12.317V.073H.074C.074 .073 0 .073 0 0" fill="#2d2d2d"/>
<path transform="matrix(1,0,0,-1,141.6292,39.121896)" d="M0 0V-12.244C0-15.543-2.796-18.256-6.181-18.256-9.566-18.256-12.289-15.543-12.289-12.244V0C-12.289 3.373-15.085 6.159-18.47 6.159-21.855 6.159-24.651 3.373-24.651 0V-12.244C-24.651-15.543-27.374-18.256-30.759-18.256-34.145-18.256-36.941-15.543-36.941-12.244V0C-36.941 3.373-39.589 6.159-42.975 6.159-46.36 6.159-49.156 3.373-49.156 0V-12.244C-49.156-15.543-51.879-18.256-55.264-18.256-58.648-18.256-61.445-15.543-61.445-12.244V0C-61.445 10.191-53.129 18.403-42.975 18.403-38.265 18.403-33.997 16.643-30.759 13.71-27.521 16.643-23.18 18.403-18.47 18.403-8.315 18.403 0 10.118 0 0" fill="#2d2d2d"/>
<path transform="matrix(1,0,0,-1,161.0535,26.804596)" d="M0 0V-24.562C0-27.861-2.648-30.574-6.034-30.574-9.419-30.574-12.068-27.861-12.068-24.562V0C-12.068 3.299-9.419 6.012-6.034 6.012-2.648 6.012 0 3.299 0 0M-12.068 15.03C-12.068 18.403-9.419 21.116-6.034 21.116-2.648 21.116 0 18.403 0 15.03 0 11.731-2.648 9.018-6.034 9.018-9.419 9.018-12.068 11.731-12.068 15.03" fill="#2d2d2d"/>
</g>
</g>
</svg>
